<svg width="24" height="24" viewBox="0 0 24 24" fill="none" xmlns="http://www.w3.org/2000/svg">
<path d="M12 14C13.1046 14 14 13.1046 14 12C14 10.8954 13.1046 10 12 10C10.8954 10 10 10.8954 10 12C10 13.1046 10.8954 14 12 14Z" stroke="#707070" stroke-width="1.5"/>
<path d="M5.39899 5.87967L5.77399 5.22967C5.62676 5.14474 5.45504 5.11233 5.28698 5.13777C5.11893 5.1632 4.96449 5.24497 4.84899 5.36967L5.39899 5.87967ZM3.39999 9.34367L2.68299 9.12167C2.63283 9.28412 2.63936 9.45879 2.7015 9.61705C2.76363 9.7753 2.8777 9.90775 3.02499 9.99267L3.39999 9.34367ZM3.39799 14.6547L3.02299 14.0047C2.87567 14.0898 2.76167 14.2225 2.6997 14.3809C2.63774 14.5394 2.63149 14.7142 2.68199 14.8767L3.39799 14.6547ZM5.39799 18.1187L4.84799 18.6287C4.96349 18.7534 5.11793 18.8351 5.28598 18.8606C5.45404 18.886 5.62576 18.8536 5.77299 18.7687L5.39799 18.1187ZM9.99799 20.7737H9.24799C9.24799 21.1237 9.49099 21.4267 9.83199 21.5047L9.99799 20.7737ZM13.999 20.7757L14.166 21.5077C14.3317 21.4698 14.4797 21.3767 14.5857 21.2437C14.6916 21.1107 14.7492 20.9457 14.749 20.7757H13.999ZM18.6 18.1197L18.225 18.7697C18.3722 18.8546 18.5439 18.887 18.712 18.8616C18.8801 18.8361 19.0345 18.7544 19.15 18.6297L18.6 18.1197ZM20.598 14.6537L21.315 14.8757C21.3651 14.7132 21.3586 14.5385 21.2965 14.3803C21.2343 14.222 21.1203 14.0896 20.973 14.0047L20.598 14.6537ZM20.6 9.34267L20.975 9.99267C21.1223 9.90755 21.2363 9.77487 21.2983 9.61642C21.3602 9.45796 21.3665 9.28315 21.316 9.12067L20.6 9.34267ZM18.6 5.87767L19.15 5.36867C19.0345 5.24397 18.8801 5.1622 18.712 5.13677C18.5439 5.11133 18.3722 5.14374 18.225 5.22867L18.6 5.87767ZM14 3.22467H14.75C14.7499 3.05481 14.6923 2.89 14.5863 2.7572C14.4804 2.6244 14.3326 2.53149 14.167 2.49367L14 3.22467ZM9.99999 3.22267L9.83299 2.49067C9.66723 2.52853 9.51925 2.62159 9.41332 2.75459C9.30739 2.88759 9.2498 3.05264 9.24999 3.22267H9.99999ZM4.11699 9.56567C4.48095 8.38259 5.10678 7.2967 5.94799 6.38867L4.84799 5.36867C3.85393 6.44164 3.1143 7.72472 2.68399 9.12267L4.11699 9.56567ZM4.85499 16.1247C4.54629 15.5906 4.29809 15.0238 4.11499 14.4347L2.68299 14.8777C2.89883 15.5737 3.19164 16.2435 3.55599 16.8747L4.85499 16.1247ZM5.94899 17.6107C5.53022 17.1575 5.16329 16.6591 4.85499 16.1247L3.55599 16.8747C3.92007 17.5059 4.35341 18.0935 4.84799 18.6287L5.94899 17.6107ZM13.833 20.0457C12.6263 20.3203 11.3733 20.3196 10.167 20.0437L9.83299 21.5057C11.2591 21.8322 12.7404 21.8332 14.167 21.5087L13.833 20.0457ZM19.883 14.4337C19.519 15.6168 18.8932 16.7026 18.052 17.6107L19.152 18.6307C20.146 17.5577 20.8857 16.2746 21.316 14.8767L19.883 14.4337ZM19.145 7.87467C19.459 8.42334 19.7057 8.98667 19.885 9.56467L21.317 9.12167C21.1011 8.42561 20.8083 7.75581 20.444 7.12467L19.145 7.87467ZM18.05 6.38867C18.46 6.83167 18.828 7.32867 19.144 7.87467L20.444 7.12467C20.0796 6.49341 19.6449 5.90377 19.15 5.36867L18.05 6.38867ZM10.166 3.95367C11.3726 3.67904 12.6256 3.67973 13.832 3.95567L14.167 2.49367C12.7409 2.16719 11.2585 2.16616 9.83199 2.49067L10.166 3.95367ZM10.749 5.07167V3.22167H9.24899V5.07167H10.749ZM7.37499 6.15367L5.77399 5.22967L5.02399 6.52867L6.62399 7.45267L7.37499 6.15367ZM4.62499 13.0827L3.02399 14.0067L3.77399 15.3057L5.37499 14.3817L4.62499 13.0827ZM5.37499 9.61767L3.77499 8.69467L3.02499 9.99467L4.62499 10.9177L5.37499 9.61767ZM10.75 20.7747V18.9277H9.24999V20.7747H10.75ZM6.62499 16.5467L5.02399 17.4707L5.77399 18.7707L7.37399 17.8457L6.62499 16.5467ZM18.976 17.4707L17.375 16.5467L16.625 17.8457L18.225 18.7697L18.976 17.4707ZM14.75 20.7767V18.9277H13.25V20.7777L14.75 20.7767ZM20.226 8.69367L18.625 9.61767L19.375 10.9177L20.975 9.99267L20.226 8.69367ZM20.974 14.0057L19.375 13.0817L18.625 14.3817L20.225 15.3047L20.974 14.0057ZM14.75 5.07167V3.22467H13.25V5.07167H14.75ZM18.226 5.22967L16.625 6.15367L17.375 7.45367L18.976 6.52867L18.226 5.22967ZM13.25 5.07167C13.25 7.18867 15.542 8.51267 17.375 7.45367L16.625 6.15367C16.435 6.26336 16.2195 6.32112 16.0001 6.32114C15.7807 6.32116 15.5652 6.26345 15.3752 6.1538C15.1852 6.04416 15.0274 5.88643 14.9177 5.69648C14.8079 5.50653 14.7501 5.29105 14.75 5.07167H13.25ZM18.625 9.61767C16.792 10.6767 16.792 13.3227 18.625 14.3817L19.375 13.0817C19.185 12.972 19.0272 12.8142 18.9175 12.6241C18.8078 12.4341 18.75 12.2186 18.75 11.9992C18.75 11.7798 18.8078 11.5642 18.9175 11.3742C19.0272 11.1842 19.185 11.0264 19.375 10.9167L18.625 9.61767ZM17.375 16.5467C15.542 15.4877 13.25 16.8107 13.25 18.9277H14.75C14.7501 18.7083 14.8079 18.4928 14.9177 18.3029C15.0274 18.1129 15.1852 17.9552 15.3752 17.8455C15.5652 17.7359 15.7807 17.6782 16.0001 17.6782C16.2195 17.6782 16.435 17.736 16.625 17.8457L17.375 16.5467ZM10.75 18.9277C10.75 16.8107 8.45799 15.4877 6.62499 16.5467L7.37399 17.8457C7.56397 17.736 7.78048 17.6782 7.99986 17.6782C8.21923 17.6782 8.43475 17.7359 8.62476 17.8455C8.81477 17.9552 8.97257 18.1129 9.08232 18.3029C9.19207 18.4928 9.2499 18.7083 9.24999 18.9277H10.75ZM5.37499 14.3817C7.20799 13.3227 7.20799 10.6767 5.37499 9.61767L4.62499 10.9177C4.815 11.0274 4.97278 11.1852 5.08248 11.3752C5.19218 11.5652 5.24993 11.7808 5.24993 12.0002C5.24993 12.2196 5.19218 12.4351 5.08248 12.6251C4.97278 12.8152 4.815 12.973 4.62499 13.0827L5.37499 14.3817ZM9.24999 5.07167C9.2499 5.29105 9.19207 5.50653 9.08232 5.69648C8.97257 5.88643 8.81477 6.04416 8.62476 6.1538C8.43475 6.26345 8.21923 6.32116 7.99986 6.32114C7.78048 6.32112 7.56497 6.26336 7.37499 6.15367L6.62499 7.45367C8.45799 8.51167 10.75 7.18867 10.75 5.07167H9.24999Z" fill="#707070"/>
</svg>